<svg width="18" height="18" fill="none" xmlns="http://www.w3.org/2000/svg"><path fill-rule="evenodd" clip-rule="evenodd" d="M11.609 1.942a3.744 3.744 0 1 1 5.294 5.294l-.423.424a.75.75 0 0 1-1.06-1.061l.423-.424a2.244 2.244 0 1 0-3.174-3.173L5.472 10.2a1.046 1.046 0 1 0 1.48 1.48l5.504-5.505a.75.75 0 0 1 1.06 1.061L8.012 12.74a2.546 2.546 0 1 1-3.6-3.6l7.197-7.198Zm-2.75.423a.75.75 0 0 1 0 1.06L2.508 9.778a3.441 3.441 0 1 0 4.867 4.866l6.35-6.35a.75.75 0 0 1 1.062 1.06l-6.351 6.351a4.941 4.941 0 0 1-6.989-6.988l6.351-6.351a.75.75 0 0 1 1.06 0Z" fill="#222"/></svg>