<svg width="18" height="18" fill="none" xmlns="http://www.w3.org/2000/svg"><path fill-rule="evenodd" clip-rule="evenodd" d="m8.25 17.426.217.172.532.399.532-.4c.05-.039.125-.097.217-.171a26.184 26.184 0 0 0 3.073-2.92c1.65-1.853 3.452-4.482 3.452-7.232a7.274 7.274 0 0 0-14.548 0c0 2.75 1.803 5.379 3.452 7.232a26.187 26.187 0 0 0 3.073 2.92ZM8.999 1.5a5.774 5.774 0 0 0-5.774 5.774c0 2.158 1.46 4.422 3.072 6.235A24.666 24.666 0 0 0 9 16.102a24.673 24.673 0 0 0 2.702-2.593c1.613-1.813 3.072-4.077 3.072-6.235A5.774 5.774 0 0 0 8.999 1.5Z" fill="#222"/><path fill-rule="evenodd" clip-rule="evenodd" d="M8.999 4.762a2.512 2.512 0 1 0 0 5.024 2.512 2.512 0 0 0 0-5.024ZM4.987 7.274a4.012 4.012 0 1 1 8.024 0 4.012 4.012 0 0 1-8.024 0Z" fill="#222"/></svg>