<svg width="15" height="15" fill="none" xmlns="http://www.w3.org/2000/svg"><path fill-rule="evenodd" clip-rule="evenodd" d="M6.801 14.466c.077.062.137.11.18.142l.518.388.518-.388.18-.142a21.503 21.503 0 0 0 2.525-2.399c1.348-1.515 2.851-3.694 2.851-5.993a6.074 6.074 0 1 0-12.148 0c0 2.299 1.503 4.478 2.852 5.994A21.5 21.5 0 0 0 6.8 14.466ZM7.5 1.5a4.574 4.574 0 0 0-4.574 4.574c0 1.707 1.16 3.52 2.472 4.996A19.995 19.995 0 0 0 7.5 13.1a19.993 19.993 0 0 0 2.102-2.029c1.313-1.476 2.472-3.29 2.472-4.997A4.574 4.574 0 0 0 7.499 1.5Z" fill="#222"/><path fill-rule="evenodd" clip-rule="evenodd" d="M7.499 4.162a1.912 1.912 0 1 0 0 3.824 1.912 1.912 0 0 0 0-3.824ZM4.087 6.074a3.412 3.412 0 1 1 6.824 0 3.412 3.412 0 0 1-6.824 0Z" fill="#222"/></svg>