<svg width="18" height="18" fill="none" xmlns="http://www.w3.org/2000/svg"><g clip-path="url(#a)"><path fill-rule="evenodd" clip-rule="evenodd" d="M13.471.039a1.527 1.527 0 0 0-1.742.882l-.001.003-1.549 3.61c-.267.623-.09 1.35.44 1.779l1.486 1.218a11.21 11.21 0 0 1-4.573 4.572l-1.22-1.489a1.52 1.52 0 0 0-1.777-.437L.927 11.723l-.006.003a1.533 1.533 0 0 0-.882 1.745l.773 3.351c.16.688.772 1.18 1.484 1.18C10.96 18 17.998 10.98 18 2.301A1.513 1.513 0 0 0 16.823.815L13.47.039Zm-.366 1.479-1.547 3.607 2.413 1.996-.248.529a12.692 12.692 0 0 1-6.073 6.07l-.528.248-1.997-2.413L1.523 13.1a.042.042 0 0 0-.02.019c-.004.008-.003.013-.003.013v.001l.773 3.351c.002.01.01.017.023.017C10.135 16.5 16.5 10.148 16.5 2.3v-.014l-.002-.003-.003-.003-.007-.002h-.002L13.135 1.5h-.008a.026.026 0 0 0-.008.002.03.03 0 0 0-.014.015Z" fill="#222"/></g><defs><clipPath id="a"><path fill="#fff" d="M0 0h18v18H0z"/></clipPath></defs></svg>