<svg width="18" height="18" fill="none" xmlns="http://www.w3.org/2000/svg"><path d="M9.93 2.383c.255.255.383.565.383.93 0 .364-.128.674-.383.93a1.266 1.266 0 0 1-.93.382c-.365 0-.674-.128-.93-.383a1.266 1.266 0 0 1-.383-.93c0-.364.128-.674.383-.93C8.326 2.129 8.635 2 9 2c.365 0 .674.128.93.383ZM8.07 13.758c.256-.255.565-.383.93-.383.365 0 .674.128.93.383.255.255.383.565.383.93 0 .364-.128.674-.383.93A1.266 1.266 0 0 1 9 16c-.365 0-.674-.128-.93-.383a1.266 1.266 0 0 1-.383-.93c0-.364.128-.674.383-.93Zm5.688-5.688c.255-.255.565-.383.93-.383.364 0 .674.128.93.383.254.256.382.565.382.93 0 .365-.128.674-.383.93a1.266 1.266 0 0 1-.93.383 1.27 1.27 0 0 1-.93-.383 1.266 1.266 0 0 1-.382-.93c0-.365.128-.674.383-.93Zm-9.516 0c.255.256.383.565.383.93 0 .365-.128.674-.383.93a1.266 1.266 0 0 1-.93.383 1.27 1.27 0 0 1-.93-.383A1.266 1.266 0 0 1 2 9c0-.365.128-.674.383-.93.255-.255.565-.383.93-.383.364 0 .674.128.93.383Zm-.191 4.02c.255-.255.565-.383.93-.383.364 0 .674.128.93.383.254.255.382.565.382.93 0 .364-.128.674-.383.93a1.266 1.266 0 0 1-.93.382 1.27 1.27 0 0 1-.93-.383 1.266 1.266 0 0 1-.382-.93c0-.364.128-.674.383-.93Zm8.039 0c.255-.255.565-.383.93-.383.364 0 .674.128.93.383.254.255.382.565.382.93 0 .364-.128.674-.383.93a1.266 1.266 0 0 1-.93.382 1.27 1.27 0 0 1-.93-.383 1.266 1.266 0 0 1-.382-.93c0-.364.128-.674.383-.93ZM4.05 4.05c.256-.254.566-.382.93-.382.365 0 .675.128.93.383s.383.565.383.93c0 .364-.128.674-.383.93a1.266 1.266 0 0 1-.93.382 1.27 1.27 0 0 1-.93-.383 1.266 1.266 0 0 1-.382-.93c0-.364.128-.674.383-.93Z" fill="#222"/></svg>