<svg width="18" height="18" viewBox="0 0 18 18" fill="none" xmlns="http://www.w3.org/2000/svg">
<path fill-rule="evenodd" clip-rule="evenodd" d="M8.24961 17.426C8.34244 17.5004 8.41601 17.558 8.4671 17.5975L8.99898 17.9965L9.53085 17.5975C9.58194 17.558 9.65551 17.5004 9.74834 17.426C9.93395 17.2773 10.197 17.0608 10.5116 16.7861C11.1399 16.2375 11.9794 15.4522 12.8213 14.506C14.4701 12.6529 16.273 10.024 16.273 7.274C16.273 3.25668 13.0163 0 8.99898 0C4.98166 0 1.72498 3.25668 1.72498 7.274C1.72498 10.024 3.5278 12.6529 5.17667 14.506C6.01854 15.4522 6.85808 16.2375 7.48633 16.7861C7.80099 17.0608 8.064 17.2773 8.24961 17.426ZM8.99898 1.5C5.81008 1.5 3.22498 4.08511 3.22498 7.274C3.22498 9.43188 4.68415 11.696 6.29728 13.5089C7.08641 14.3958 7.87787 15.1367 8.47287 15.6561C8.67389 15.8317 8.85186 15.9814 8.99897 16.1023C9.14609 15.9814 9.32406 15.8317 9.52508 15.6561C10.1201 15.1367 10.9115 14.3958 11.7007 13.5089C13.3138 11.696 14.773 9.43188 14.773 7.274C14.773 4.08511 12.1879 1.5 8.99898 1.5Z" fill="#222222"/>
<path fill-rule="evenodd" clip-rule="evenodd" d="M8.999 4.76196C7.61166 4.76196 6.487 5.88662 6.487 7.27396C6.487 8.6613 7.61166 9.78596 8.999 9.78596C10.3863 9.78596 11.511 8.6613 11.511 7.27396C11.511 5.88662 10.3863 4.76196 8.999 4.76196ZM4.987 7.27396C4.987 5.0582 6.78323 3.26196 8.999 3.26196C11.2148 3.26196 13.011 5.0582 13.011 7.27396C13.011 9.48973 11.2148 11.286 8.999 11.286C6.78323 11.286 4.987 9.48973 4.987 7.27396Z" fill="#222222"/>
</svg>
